<?xml version="1.0" standalone="no"?>
<!DOCTYPE svg PUBLIC "-//W3C//DTD SVG 20010904//EN"
 "http://www.w3.org/TR/2001/REC-SVG-20010904/DTD/svg10.dtd">
<svg version="1.0" xmlns="http://www.w3.org/2000/svg"
 width="294.000000pt" height="274.000000pt" viewBox="0 0 294.000000 274.000000"
 preserveAspectRatio="xMidYMid meet">

<g transform="translate(0.000000,274.000000) scale(0.100000,-0.100000)"
fill="#000000" stroke="none">
<path d="M232 2453 c-64 -31 -63 -19 -60 -594 l3 -521 33 -29 32 -29 295 0
c195 0 296 4 300 11 4 5 4 21 1 34 l-6 24 -286 1 c-158 0 -291 3 -295 6 -5 3
-9 28 -9 55 l0 50 290 -1 c160 -1 295 2 300 5 6 3 10 16 10 29 l0 23 -212 6
c-116 4 -251 7 -300 7 l-88 0 2 428 3 427 60 6 c33 4 351 7 707 8 500 0 649
-2 655 -12 4 -7 13 -73 18 -147 10 -135 10 -135 35 -135 l25 0 3 146 3 146
-30 32 -29 31 -700 0 c-385 0 -706 2 -714 5 -7 2 -28 -3 -46 -12z"/>
<path d="M636 2318 c-7 -13 -33 -83 -56 -155 l-42 -133 -114 0 c-110 0 -115
-1 -123 -22 -16 -43 1 -49 148 -46 l136 3 29 82 c17 45 31 81 32 80 2 -1 17
-108 34 -237 17 -129 33 -243 36 -253 4 -13 14 -17 32 -15 26 3 29 10 67 153
22 83 43 156 46 164 4 10 29 13 111 12 99 -2 107 -1 118 19 23 42 0 50 -145
50 l-132 0 -24 -80 c-13 -44 -26 -80 -29 -80 -3 0 -18 100 -33 222 -16 123
-33 231 -38 240 -13 25 -36 23 -53 -4z"/>
<path d="M1452 2049 c-157 -26 -305 -102 -400 -204 -67 -71 -96 -121 -133
-230 -21 -61 -24 -88 -24 -210 0 -161 9 -192 115 -423 111 -242 123 -327 74
-493 -28 -93 -27 -119 5 -119 60 0 112 261 80 400 -5 25 -48 132 -95 239 -104
237 -117 289 -112 436 4 94 10 122 37 192 45 116 137 214 254 271 121 60 191
76 332 77 230 0 397 -75 526 -237 75 -95 106 -221 89 -364 -13 -111 -7 -137
72 -298 65 -133 64 -136 -17 -136 -54 0 -66 -3 -75 -20 -8 -16 -7 -23 10 -37
23 -20 28 -84 7 -101 -7 -6 -37 -12 -67 -14 -44 -2 -56 -7 -58 -22 -5 -26 11
-39 60 -45 l43 -6 3 -63 c4 -93 1 -95 -138 -90 -97 4 -130 10 -211 38 -100 34
-129 34 -129 2 0 -14 18 -28 58 -48 31 -16 59 -30 60 -31 2 -1 -3 -28 -11 -60
-17 -69 -13 -85 21 -81 21 2 29 11 38 44 22 77 28 82 76 73 60 -11 186 -11
229 1 63 18 73 38 74 149 0 70 4 103 14 115 8 9 16 41 19 71 4 49 6 53 33 59
41 8 79 49 79 84 0 17 -27 88 -61 158 -43 91 -61 141 -61 169 0 22 1 90 2 150
3 95 0 120 -22 187 -14 43 -40 99 -56 125 -43 66 -136 155 -206 197 -144 86
-358 124 -534 95z"/>
<path d="M1563 1868 c-18 -13 -43 -42 -55 -65 -22 -42 -23 -42 -82 -45 -110
-6 -100 -68 11 -68 42 0 55 -4 60 -17 22 -62 93 -113 155 -113 19 0 54 10 78
23 118 59 123 208 11 284 -47 32 -133 32 -178 1z m132 -52 c40 -17 55 -42 55
-91 0 -29 -7 -44 -32 -67 -28 -26 -38 -29 -73 -25 -81 11 -115 105 -57 159 43
40 59 44 107 24z"/>
<path d="M1625 1750 c-9 -15 3 -47 22 -54 25 -10 51 20 37 42 -13 20 -49 28
-59 12z"/>
<path d="M1222 1541 c-24 -18 -46 -44 -53 -65 -13 -36 -13 -36 -74 -36 -64 0
-87 -12 -77 -39 9 -25 23 -31 82 -31 55 0 55 0 79 -45 53 -100 190 -114 264
-26 95 113 22 271 -125 271 -45 0 -62 -5 -96 -29z m158 -60 c71 -51 27 -171
-63 -171 -31 0 -84 35 -92 60 -11 33 3 84 28 107 38 36 80 37 127 4z"/>
<path d="M1297 1434 c-13 -13 -7 -52 9 -58 22 -9 46 13 42 38 -3 21 -37 34
-51 20z"/>
<path d="M2015 1395 c-33 -7 -86 -25 -117 -40 -46 -21 -58 -32 -58 -50 0 -34
23 -37 95 -10 l65 25 0 -34 c0 -27 5 -36 22 -42 27 -8 48 18 48 62 0 23 5 33
20 37 25 6 27 43 3 55 -11 6 -41 5 -78 -3z"/>
</g>
</svg>
