<?xml version="1.0" standalone="no"?>
<!DOCTYPE svg PUBLIC "-//W3C//DTD SVG 20010904//EN"
 "http://www.w3.org/TR/2001/REC-SVG-20010904/DTD/svg10.dtd">
<svg version="1.0" xmlns="http://www.w3.org/2000/svg"
 width="324.000000pt" height="155.000000pt" viewBox="0 0 324.000000 155.000000"
 preserveAspectRatio="xMidYMid meet">

<g transform="translate(0.000000,155.000000) scale(0.100000,-0.100000)"
fill="#000000" stroke="none">
<path d="M0 775 l0 -775 1620 0 1620 0 0 775 0 775 -1620 0 -1620 0 0 -775z
m1730 465 c0 -13 3 -13 -335 -14 -245 -2 -295 -4 -320 -18 -81 -43 -94 -87
-95 -310 0 -118 -4 -178 -11 -178 -7 0 -9 65 -7 203 3 201 3 204 30 244 15 23
44 49 70 62 41 20 56 21 356 21 201 0 312 -4 312 -10z m418 -6 c53 -22 89 -60
107 -115 14 -40 16 -97 13 -366 -3 -311 -4 -319 -26 -358 -26 -45 -72 -80
-123 -95 -19 -6 -103 -10 -187 -9 l-153 2 -78 -77 c-43 -42 -84 -76 -90 -76
-7 0 -45 35 -86 77 l-74 77 -173 1 c-144 1 -179 5 -208 20 -89 45 -110 89
-110 230 0 58 4 105 9 105 5 0 11 -48 13 -107 4 -122 16 -153 76 -193 34 -24
43 -25 216 -28 l181 -3 77 -77 78 -76 37 34 c20 19 55 54 76 77 l39 43 172 0
c194 0 234 11 277 71 l24 34 3 337 c3 321 2 339 -17 377 -11 21 -36 49 -55 61
-36 21 -37 22 -348 30 -5 0 -8 5 -8 10 0 18 294 13 338 -6z m-473 -161 c35
-38 31 -50 -6 -19 -39 33 -66 33 -101 -1 -18 -17 -28 -22 -28 -13 0 23 51 60
81 60 18 0 38 -10 54 -27z m-205 -63 c0 -5 -14 -10 -32 -10 l-32 0 44 -45 c24
-24 41 -47 37 -51 -3 -4 -19 6 -35 22 -16 16 -37 36 -47 44 -17 14 -18 13 -11
-12 5 -21 3 -28 -9 -28 -11 0 -15 11 -15 45 l0 45 50 0 c28 0 50 -4 50 -10z
m396 -38 c1 -28 -2 -42 -10 -39 -6 2 -11 10 -12 18 0 8 -2 19 -3 24 -1 6 -19
-10 -41 -34 -22 -24 -43 -41 -47 -37 -4 3 13 27 37 51 l44 45 -32 0 c-18 0
-32 5 -32 11 0 6 19 9 48 7 l47 -3 1 -43z m-530 -151 c-33 -34 -33 -58 1 -93
14 -15 23 -31 19 -35 -12 -12 -66 55 -66 81 0 28 47 89 62 80 5 -4 -2 -18 -16
-33z m598 -3 c24 -33 19 -64 -13 -100 -37 -42 -53 -30 -17 12 32 39 32 51 1
88 -14 17 -25 33 -25 36 0 12 39 -14 54 -36z m-482 -223 l-47 -45 33 0 c17 0
32 -5 32 -11 0 -6 -19 -9 -47 -7 l-48 3 -3 43 c-3 45 15 60 20 15 l3 -26 44
41 c24 23 48 39 52 36 4 -2 -13 -25 -39 -49z m338 23 c0 -4 13 -16 28 -27 28
-19 28 -19 28 -1 -1 11 3 20 8 22 11 4 18 -30 11 -59 -5 -20 -12 -23 -50 -23
-25 0 -45 5 -45 10 0 6 14 10 32 10 l31 0 -41 42 c-45 45 -55 66 -22 46 11 -7
20 -16 20 -20z m-215 -128 c23 -26 55 -25 89 1 30 23 47 19 26 -6 -26 -31 -68
-47 -93 -34 -29 15 -57 40 -57 51 0 14 16 9 35 -12z"/>
</g>
</svg>
