<svg enable-background="new 0 0 512.003 512.003" viewBox="0 0 512.003 512.003" xmlns="http://www.w3.org/2000/svg"><path d="m374.197 349.546-24.608 24.608c-5.117 5.117-5.117 13.412 0 18.528l106.617 106.618c5.117 5.117 13.412 5.117 18.528 0l24.608-24.608c5.117-5.117 5.117-13.412 0-18.528l-106.617-106.618c-5.116-5.117-13.412-5.117-18.528 0z" fill="#c7c5cb"/><path d="m499.344 456.163-106.619-106.617c-5.117-5.117-13.412-5.117-18.528 0l-24.608 24.608v.001l3.099-3.097c5.117-5.117 13.412-5.117 18.528 0l106.618 106.617c5.117 5.117 5.117 13.412 0 18.528l21.511-21.509c5.115-5.118 5.115-13.414-.001-18.531z" fill="#8b8992"/><circle cx="204.606" cy="204.57" fill="#84c9fe" r="195.797"/><path d="m343.061 66.115c-42.609-42.608-99.969-61.461-155.641-56.584 44.236 3.876 87.406 22.729 121.261 56.585 76.464 76.464 76.464 200.439 0 276.903-33.856 33.856-77.025 52.709-121.261 56.585 55.672 4.878 113.033-13.975 155.642-56.585 76.464-76.465 76.464-200.438-.001-276.904z" fill="#70b9e5"/><circle cx="204.606" cy="204.57" fill="#f2f2f2" r="161.424"/><path d="m318.751 90.426c-35.412-35.412-83.184-50.93-129.428-46.555 36.078 3.411 71.227 18.929 98.854 46.555 63.038 63.038 63.038 165.244 0 228.282-27.627 27.627-62.775 43.144-98.854 46.555 46.245 4.373 94.017-11.143 129.428-46.555 63.039-63.038 63.039-165.244 0-228.282z" fill="#e6e6e6"/><path d="m136.14 155.575c-23.513 21.865-25.563 55.691-40.431 39.703-14.866-15.988-7.857-46.674 15.657-68.537s54.627-26.627 69.493-10.64-21.204 17.611-44.719 39.474z" fill="#fff"/><g fill="#232323"><path d="m505.58 449.927-60.905-60.905c-3.446-3.444-9.029-3.444-12.473 0s-3.444 9.029 0 12.472l60.906 60.905c1.091 1.091 1.254 2.365 1.254 3.027s-.163 1.936-1.255 3.028l-24.608 24.608c-1.091 1.091-2.365 1.254-3.027 1.254s-1.936-.162-3.027-1.254l-106.619-106.618c-1.67-1.669-1.67-4.386 0-6.055l24.609-24.608c1.091-1.091 2.365-1.254 3.027-1.254s1.936.163 3.027 1.254l18.732 18.732c3.446 3.444 9.029 3.444 12.473 0s3.444-9.029 0-12.472l-18.733-18.732c-4.141-4.141-9.645-6.42-15.5-6.42s-11.361 2.28-15.502 6.421l-6.068 6.068-6.501-6.501c73.619-80.177 71.596-205.306-6.094-282.997-79.782-79.782-209.596-79.782-289.378 0-33.126 33.129-54.022 76.991-58.836 123.509-4.744 45.847 6.209 92.381 30.844 131.029 2.619 4.108 8.071 5.314 12.177 2.696 4.108-2.619 5.315-8.071 2.696-12.178-46.687-73.249-35.922-171.066 25.596-232.584 72.902-72.904 191.527-72.904 264.43 0s72.902 191.527 0 264.431c-72.904 72.902-191.529 72.904-264.43 0-1.208-1.208-2.395-2.427-3.563-3.66-3.353-3.535-8.935-3.683-12.47-.33-3.534 3.351-3.682 8.934-.33 12.469 1.276 1.345 2.572 2.676 3.89 3.995 39.891 39.891 92.289 59.835 144.689 59.835 49.654 0 99.299-17.922 138.309-53.741l6.501 6.501-6.068 6.068c-8.547 8.547-8.547 22.454 0 31.001l106.618 106.618c4.141 4.141 9.645 6.421 15.502 6.421s11.361-2.28 15.501-6.421l24.607-24.608c4.141-4.141 6.422-9.645 6.422-15.502s-2.283-11.362-6.423-15.502z"/><path d="m204.61 374.807c45.472 0 88.223-17.709 120.377-49.862s49.862-74.904 49.862-120.377c0-45.472-17.709-88.223-49.862-120.377s-74.905-49.862-120.377-49.862c-45.473 0-88.223 17.709-120.378 49.862-66.375 66.377-66.375 174.38 0 240.754 32.154 32.153 74.905 49.862 120.378 49.862zm-107.905-278.145c28.823-28.823 67.144-44.696 107.905-44.696s79.082 15.873 107.904 44.696c28.824 28.823 44.697 67.144 44.697 107.905s-15.873 79.082-44.697 107.905c-28.822 28.823-67.143 44.696-107.904 44.696s-79.082-15.873-107.905-44.696c-59.498-59.499-59.498-156.31 0-215.81z"/></g></svg>