<?xml version="1.0" standalone="no"?>
<!DOCTYPE svg PUBLIC "-//W3C//DTD SVG 20010904//EN"
 "http://www.w3.org/TR/2001/REC-SVG-20010904/DTD/svg10.dtd">
<svg version="1.0" xmlns="http://www.w3.org/2000/svg"
 width="800.000000pt" height="800.000000pt" viewBox="0 0 800.000000 800.000000"
 preserveAspectRatio="xMidYMid meet">

<g transform="translate(0.000000,800.000000) scale(0.100000,-0.100000)"
fill="#000000" stroke="none">
<path d="M0 4000 l0 -4000 4000 0 4000 0 0 4000 0 4000 -4000 0 -4000 0 0
-4000z m4044 2178 l26 -23 1 -802 c1 -442 2 -803 3 -803 1 0 62 71 136 157
203 237 280 313 317 313 36 0 66 -29 66 -65 0 -24 -62 -107 -152 -204 -23 -24
-41 -46 -41 -49 0 -3 -24 -31 -52 -62 -29 -31 -74 -81 -99 -111 -124 -145
-211 -238 -229 -244 -31 -10 -70 18 -155 111 -44 48 -105 114 -135 145 -30 32
-89 97 -131 146 -196 226 -210 247 -191 287 6 14 23 33 37 42 25 16 28 16 62
0 19 -9 77 -61 129 -115 86 -91 117 -127 229 -270 22 -28 44 -51 50 -51 7 0
11 250 13 753 2 418 8 768 13 789 9 33 49 78 70 78 4 0 19 -10 33 -22z m-973
-1588 c5 0 46 -33 92 -73 45 -40 184 -162 310 -271 125 -108 234 -211 243
-228 15 -30 15 -30 -35 -80 -28 -28 -51 -58 -51 -66 0 -11 -3 -13 -11 -5 -12
12 -69 -40 -69 -64 0 -9 -6 -13 -15 -9 -10 4 -22 -5 -35 -27 -11 -17 -20 -25
-20 -17 -1 11 -5 10 -18 -5 -9 -11 -26 -27 -38 -35 -19 -14 -96 -81 -214 -186
-67 -59 -132 -110 -153 -117 -28 -10 -77 28 -77 59 0 48 32 85 162 192 32 26
58 53 58 60 0 6 7 12 16 12 9 0 18 9 21 20 3 11 10 17 15 14 14 -9 48 26 48
49 0 16 3 17 15 7 12 -10 17 -8 26 14 7 14 15 24 18 21 4 -2 24 12 46 31 33
28 36 34 20 35 -11 0 -58 3 -104 5 -51 3 -88 1 -96 -6 -9 -8 -14 -8 -17 1 -3
8 -21 8 -66 2 -43 -7 -63 -6 -65 1 -3 8 -13 8 -35 -1 -21 -7 -32 -8 -32 -1 0
12 -92 6 -124 -7 -12 -5 -17 -5 -13 2 7 12 -23 11 -43 -2 -9 -5 -15 -4 -18 3
-5 16 -59 15 -65 0 -4 -10 -8 -9 -16 2 -8 12 -14 13 -30 3 -13 -8 -22 -9 -26
-3 -8 12 -84 2 -104 -14 -11 -8 -13 -8 -7 2 5 8 0 12 -16 12 -13 0 -30 -6 -37
-12 -11 -11 -13 -10 -8 5 5 14 3 17 -11 13 -42 -12 -254 -16 -435 -8 -174 8
-201 11 -225 29 -31 23 -39 68 -18 95 27 36 130 39 894 32 625 -6 732 -5 726
7 -3 8 -74 73 -157 144 -236 203 -297 266 -297 302 0 34 43 77 68 68 8 -3 18
-5 23 -5z m1927 -16 c15 -10 22 -25 22 -47 0 -28 -17 -49 -134 -162 -74 -72
-139 -129 -145 -127 -8 3 -9 -14 -4 -55 4 -32 7 -67 8 -78 0 -18 7 -21 65 -21
36 -1 346 -4 690 -8 364 -5 639 -12 658 -18 56 -17 57 -97 1 -117 -20 -7 -177
-11 -444 -11 -227 -1 -415 -4 -419 -7 -8 -8 -76 -9 -76 -1 0 9 -43 6 -50 -3
-3 -4 -26 -3 -52 1 -40 6 -48 4 -48 -9 0 -12 -3 -12 -12 -3 -18 18 -51 15 -44
-3 3 -8 1 -15 -4 -15 -6 0 -10 4 -10 10 0 5 -11 13 -26 16 -18 5 -29 1 -39
-12 -13 -18 -14 -18 -15 -1 0 10 -8 17 -20 17 -15 0 -20 -7 -21 -27 0 -16 -3
-21 -6 -13 -15 41 -64 52 -81 18 l-11 -23 0 23 c-1 15 -7 22 -20 22 -22 0 -31
-26 -31 -88 0 -51 16 -86 35 -78 8 3 17 -3 20 -14 3 -11 51 -61 106 -112 131
-120 151 -169 90 -215 -31 -24 -43 -16 -291 196 -80 68 -155 132 -168 143 -13
10 -28 16 -34 12 -6 -4 -8 1 -3 15 6 21 -1 26 -32 22 -7 -1 -13 4 -13 12 0 7
-14 26 -31 43 -25 23 -33 26 -37 14 -3 -10 -9 -3 -17 20 -9 25 -18 34 -31 33
-27 -3 -50 67 -33 100 12 24 108 117 179 175 25 20 63 55 86 77 23 22 77 69
120 105 43 35 81 67 84 70 3 3 40 36 83 73 83 71 112 81 155 51z m-973 -854
c-3 -5 -2 -10 3 -10 12 0 48 -35 97 -94 22 -26 48 -58 59 -70 10 -11 85 -97
166 -191 81 -93 155 -176 164 -184 33 -27 76 -99 76 -127 0 -36 -26 -64 -61
-64 -43 0 -56 8 -99 62 -22 28 -71 85 -108 127 -38 42 -109 123 -158 180 l-89
104 -3 -154 c-2 -85 1 -266 7 -404 7 -164 7 -333 1 -490 -5 -132 -9 -314 -10
-406 0 -178 -3 -189 -53 -189 -76 0 -83 27 -93 390 -11 352 -11 502 0 899 8
292 7 333 -6 330 -12 -3 -238 -252 -238 -262 0 -2 -40 -45 -88 -95 -75 -79
-92 -92 -120 -92 -26 0 -36 7 -52 32 -26 43 -20 59 55 143 34 39 75 85 91 104
86 101 188 211 195 211 5 0 8 4 6 8 -2 9 57 83 133 166 25 27 63 57 85 67 47
22 48 22 40 9z"/>
<path d="M4696 4163 c5 -21 8 -48 7 -61 -1 -18 2 -21 13 -11 22 18 18 86 -7
99 -19 11 -20 9 -13 -27z"/>
<path d="M4645 4138 c7 -32 -5 -46 -45 -51 -31 -3 -30 -4 11 -5 52 -2 69 10
69 50 0 21 -5 28 -20 28 -16 0 -19 -5 -15 -22z"/>
<path d="M4606 4121 c-3 -5 1 -11 9 -15 8 -3 15 -1 15 4 0 13 -18 22 -24 11z"/>
<path d="M4600 3902 c0 -9 9 -23 20 -30 18 -11 20 -10 20 18 0 23 -4 30 -20
30 -12 0 -20 -7 -20 -18z"/>
<path d="M4657 3913 c-9 -9 -9 -56 1 -68 4 -5 20 -21 35 -34 l27 -24 0 66 c0
67 0 67 -28 67 -16 0 -32 -3 -35 -7z"/>
</g>
</svg>
