<?xml version="1.0" standalone="no"?>
<!DOCTYPE svg PUBLIC "-//W3C//DTD SVG 20010904//EN"
 "http://www.w3.org/TR/2001/REC-SVG-20010904/DTD/svg10.dtd">
<svg version="1.0" xmlns="http://www.w3.org/2000/svg"
 width="319.000000pt" height="244.000000pt" viewBox="0 0 319.000000 244.000000"
 preserveAspectRatio="xMidYMid meet">

<g transform="translate(0.000000,244.000000) scale(0.100000,-0.100000)"
fill="#000000" stroke="none">
<path d="M1765 2346 c-66 -29 -65 -22 -65 -470 l0 -405 48 -40 c144 -123 449
-360 462 -360 8 0 123 88 255 197 l240 197 3 398 c2 347 0 403 -14 432 -30 64
-36 65 -491 65 -316 -1 -415 -4 -438 -14z m592 -481 c149 -357 153 -369 131
-391 -11 -11 -25 -14 -41 -10 -21 5 -32 23 -63 103 -21 54 -40 101 -43 105 -3
4 -34 8 -68 9 l-63 2 0 44 0 43 46 0 c53 0 53 -12 -3 123 -21 48 -40 87 -44
87 -3 0 -53 -113 -110 -251 -111 -269 -125 -290 -173 -268 -15 7 -26 20 -26
32 0 17 234 608 262 660 7 13 18 17 40 15 30 -3 32 -8 155 -303z"/>
<path d="M752 1440 c-20 -13 -41 -38 -53 -65 -19 -42 -19 -66 -17 -539 3 -482
4 -495 24 -522 11 -15 33 -37 48 -48 27 -21 33 -21 986 -21 953 0 959 0 986
21 15 11 37 33 48 48 21 27 21 38 21 536 0 613 8 580 -112 475 l-77 -68 3 -80
c2 -58 -1 -82 -11 -88 -7 -5 -45 -9 -84 -9 -55 0 -73 4 -78 15 -9 23 -18 19
-96 -45 -114 -92 -146 -92 -266 5 -62 51 -80 61 -87 50 -9 -17 -142 -21 -167
-5 -11 7 -15 29 -15 87 l0 78 -80 66 c-44 35 -89 79 -100 97 l-20 31 -410 1
c-394 0 -411 -1 -443 -20z m292 -192 c16 -24 24 -137 12 -156 -4 -8 -37 -12
-85 -12 -98 0 -104 7 -102 98 2 82 12 92 98 92 54 0 65 -3 77 -22z m330 0 c18
-26 22 -119 6 -149 -9 -16 -22 -19 -93 -19 -45 0 -88 4 -95 9 -20 12 -27 85
-12 123 19 49 36 58 111 58 59 0 70 -3 83 -22z m296 2 c26 -26 29 -130 4 -154
-23 -24 -160 -23 -172 2 -13 24 -7 139 8 157 20 24 134 21 160 -5z m-635 -324
c14 -10 21 -32 26 -77 9 -93 4 -99 -89 -99 -47 0 -83 5 -90 12 -7 7 -12 41
-12 85 0 58 3 74 18 82 25 15 125 13 147 -3z m333 -2 c19 -13 22 -24 22 -79 0
-86 -10 -95 -109 -95 -93 0 -102 7 -107 84 -2 46 1 58 21 80 21 23 32 26 87
26 41 0 71 -5 86 -16z m303 -5 c18 -18 21 -30 17 -86 -3 -42 -9 -68 -19 -74
-20 -13 -156 -11 -165 2 -15 25 -14 132 1 156 14 20 23 23 80 23 53 0 69 -4
86 -21z m310 0 c18 -18 21 -30 17 -86 -3 -42 -9 -68 -19 -74 -7 -5 -47 -9 -87
-9 -69 0 -73 1 -82 26 -15 39 -12 117 6 142 13 19 24 22 80 22 52 0 68 -4 85
-21z m305 7 c15 -12 19 -27 19 -79 0 -88 -9 -97 -101 -97 -88 0 -104 15 -104
97 0 75 20 93 103 93 39 0 71 -5 83 -14z m307 0 c13 -10 17 -28 17 -83 0 -40
-5 -74 -12 -81 -7 -7 -41 -12 -84 -12 -89 0 -104 14 -104 102 0 47 4 59 22 72
28 20 136 21 161 2z m-308 -310 c16 -12 20 -27 20 -85 0 -53 -4 -74 -15 -81
-20 -13 -1080 -13 -1100 0 -11 7 -15 28 -15 81 0 58 3 73 19 85 29 21 1063 21
1091 0z"/>
</g>
</svg>
