<?xml version="1.0" standalone="no"?>
<!DOCTYPE svg PUBLIC "-//W3C//DTD SVG 20010904//EN"
 "http://www.w3.org/TR/2001/REC-SVG-20010904/DTD/svg10.dtd">
<svg version="1.0" xmlns="http://www.w3.org/2000/svg"
 width="297.000000pt" height="290.000000pt" viewBox="0 0 297.000000 290.000000"
 preserveAspectRatio="xMidYMid meet">

<g transform="translate(0.000000,290.000000) scale(0.100000,-0.100000)"
fill="#000000" stroke="none">
<path d="M371 2718 c-118 -45 -198 -170 -188 -294 9 -114 67 -203 165 -251 47
-23 70 -28 132 -28 62 0 85 5 132 28 184 90 223 333 78 477 -84 85 -207 111
-319 68z m183 -151 c72 -41 95 -121 56 -197 -23 -45 -80 -80 -130 -80 -77 0
-150 74 -150 152 0 75 74 148 150 148 19 0 53 -10 74 -23z"/>
<path d="M921 2721 c-29 -29 -33 -78 -29 -399 l3 -292 -305 0 c-168 0 -322 -4
-343 -9 -90 -21 -90 -121 0 -142 21 -5 174 -9 341 -9 l302 0 0 -410 0 -410
-314 0 c-318 0 -356 -4 -382 -38 -17 -22 -17 -62 1 -85 23 -31 79 -37 395 -37
l305 0 -3 -308 c-3 -340 2 -379 49 -396 43 -15 78 0 95 40 12 28 14 95 14 350
l-1 315 410 2 c226 1 411 -1 411 -5 0 -5 0 -150 0 -324 1 -216 4 -323 12 -338
36 -68 117 -61 138 12 6 22 10 164 10 347 l0 310 302 -3 c167 -2 318 0 336 3
43 8 72 38 72 73 0 30 -31 71 -55 73 -8 1 -19 3 -25 4 -5 1 -149 3 -320 4
l-310 1 0 410 0 410 310 1 c171 1 315 3 320 4 6 1 17 3 25 4 24 2 55 43 55 73
0 35 -29 65 -72 73 -18 3 -169 5 -336 3 l-302 -3 0 310 c0 183 -4 325 -10 347
-21 73 -102 80 -138 12 -8 -15 -11 -122 -12 -338 0 -174 0 -319 0 -323 0 -5
-185 -7 -411 -6 l-410 2 1 313 c1 324 -4 369 -40 388 -29 16 -68 12 -89 -9z
m562 -850 l387 -1 0 -410 0 -410 -390 -1 c-214 -1 -399 -2 -410 -2 -20 -1 -20
3 -20 411 0 227 0 413 0 415 0 2 10 3 23 1 12 -1 196 -3 410 -3z"/>
<path d="M1363 1741 c-249 -86 -272 -432 -37 -547 151 -74 328 -15 401 134 23
47 28 70 28 132 0 62 -5 85 -28 132 -67 136 -221 199 -364 149z m167 -150 c42
-22 80 -84 80 -131 0 -76 -73 -150 -148 -150 -78 0 -152 73 -152 150 0 109
124 183 220 131z"/>
<path d="M1207 2692 c-10 -10 -17 -34 -17 -53 0 -29 12 -45 82 -116 l83 -83
-83 -83 c-72 -72 -82 -87 -82 -118 0 -45 25 -69 71 -69 29 0 45 12 116 82 l83
83 83 -83 c72 -72 87 -82 118 -82 45 0 69 25 69 71 0 29 -12 45 -82 116 l-83
83 83 83 c72 72 82 87 82 118 0 45 -25 69 -71 69 -29 0 -45 -12 -116 -82 l-83
-83 -83 83 c-72 72 -87 82 -118 82 -22 0 -42 -7 -52 -18z"/>
<path d="M2334 759 c-153 -58 -231 -231 -174 -383 43 -114 160 -196 280 -196
169 0 310 151 297 318 -16 203 -216 333 -403 261z m176 -149 c45 -23 80 -80
80 -130 0 -76 -74 -150 -150 -150 -76 0 -150 74 -150 150 0 48 35 107 78 129
48 26 93 26 142 1z"/>
<path d="M225 730 c-37 -41 -23 -76 67 -167 l83 -83 -84 -84 c-71 -72 -84 -89
-83 -116 1 -44 27 -70 71 -70 31 0 46 10 118 82 l83 83 83 -83 c72 -72 87 -82
118 -82 44 0 70 26 71 70 1 27 -12 44 -83 116 l-84 84 83 83 c68 68 83 90 84
115 1 44 -26 72 -71 72 -31 0 -46 -10 -118 -82 l-83 -83 -83 83 c-72 72 -87
82 -118 82 -23 0 -42 -7 -54 -20z"/>
</g>
</svg>
